<?xml version="1.0" encoding="UTF-8"?><svg id="Layer_1" xmlns="http://www.w3.org/2000/svg" xmlns:xlink="http://www.w3.org/1999/xlink" viewBox="0 0 1920 1080"><defs><clipPath id="clippath"><rect width="1920" height="1080" fill="none"/></clipPath><clipPath id="clippath-1"><rect width="1920" height="1080" fill="none"/></clipPath><clipPath id="clippath-2"><rect width="1920" height="1080" fill="none"/></clipPath><clipPath id="clippath-3"><rect x="312.84" y="395.72" width="288.55" height="288.55" fill="none"/></clipPath><clipPath id="clippath-4"><rect x="627.1" y="395.72" width="288.55" height="288.55" fill="none"/></clipPath><clipPath id="clippath-5"><rect x="1318.61" y="395.72" width="288.55" height="288.55" fill="none"/></clipPath><clipPath id="clippath-6"><rect x="1002.06" y="395.72" width="288.55" height="288.55" fill="none"/></clipPath></defs><g clip-path="url(#clippath)"><g clip-path="url(#clippath-1)"><path d="M1647.02,94.97h-6.93l-1.5,4.78h-4.24l6.85-19.73h4.85l6.86,19.73h-4.39l-1.5-4.78ZM1640.98,91.88h5.15l-2.53-8.08h-.1l-2.53,8.08Z" fill="#fdc512"/><g clip-path="url(#clippath-2)"><path d="M1669.14,92.43c0,4.72-2.27,7.56-5.93,7.56-2.13,0-3.77-1.04-4.55-2.69h-.08v7.25h-3.99v-19.44h3.94v2.56h.08c.79-1.72,2.42-2.79,4.54-2.79,3.72,0,6,2.83,6,7.56M1665.05,92.43c0-2.65-1.26-4.36-3.25-4.36s-3.24,1.74-3.24,4.36,1.29,4.35,3.24,4.35,3.25-1.68,3.25-4.35" fill="#fdc512"/><path d="M1685.75,92.43c0,4.72-2.27,7.56-5.93,7.56-2.13,0-3.77-1.04-4.55-2.69h-.08v7.25h-3.99v-19.44h3.94v2.56h.08c.79-1.72,2.42-2.79,4.54-2.79,3.72,0,6,2.83,6,7.56M1681.66,92.43c0-2.65-1.26-4.36-3.25-4.36s-3.24,1.74-3.24,4.36,1.29,4.35,3.24,4.35,3.25-1.68,3.25-4.35" fill="#fdc512"/><rect x="1687.9" y="80.03" width="3.99" height="19.73" fill="#fdc512"/><path d="M1694.51,81.42c0-1.16.93-2.07,2.13-2.07s2.13.9,2.13,2.07-.93,2.06-2.13,2.06-2.13-.92-2.13-2.06M1694.65,85.1h3.99v14.66h-3.99v-14.66Z" fill="#fdc512"/><path d="M1710.91,90.56c-.23-1.54-1.26-2.64-2.9-2.64-1.97,0-3.2,1.67-3.2,4.5s1.23,4.53,3.21,4.53c1.6,0,2.64-.96,2.89-2.56h3.72c-.2,3.46-2.79,5.69-6.65,5.69-4.42,0-7.22-2.87-7.22-7.66s2.8-7.63,7.19-7.63c3.96,0,6.48,2.45,6.66,5.77h-3.7Z" fill="#fdc512"/><path d="M1715.99,95.55c0-2.67,2.05-4.21,5.7-4.43l3.69-.22v-.97c0-1.37-.96-2.16-2.46-2.16s-2.43.74-2.62,1.82h-3.65c.15-2.84,2.57-4.8,6.45-4.8s6.21,1.94,6.21,4.9v10.08h-3.86v-2.24h-.08c-.82,1.56-2.64,2.47-4.47,2.47-2.79,0-4.91-1.8-4.91-4.44M1725.39,94.38v-1.07l-3.09.19c-1.49.11-2.34.78-2.34,1.82,0,1.09.9,1.78,2.26,1.78,1.74,0,3.17-1.14,3.17-2.72" fill="#fdc512"/><path d="M1736.94,81.72v3.38h2.71v3.01h-2.71v7.01c0,1.12.55,1.65,1.72,1.65.35,0,.72-.03.97-.07v2.94c-.41.1-1.09.16-1.9.16-3.44,0-4.78-1.15-4.78-4.01v-7.7h-2.07v-3.01h2.07v-3.38h3.99Z" fill="#fdc512"/><path d="M1741.76,81.42c0-1.16.93-2.07,2.13-2.07s2.13.9,2.13,2.07-.93,2.06-2.13,2.06-2.13-.92-2.13-2.06M1741.9,85.1h3.99v14.66h-3.99v-14.66Z" fill="#fdc512"/><path d="M1748.01,92.42c0-4.74,2.87-7.63,7.26-7.63s7.26,2.87,7.26,7.63-2.83,7.66-7.26,7.66-7.26-2.84-7.26-7.66M1758.47,92.43c0-2.91-1.26-4.59-3.2-4.59s-3.21,1.68-3.21,4.59,1.24,4.59,3.21,4.59,3.2-1.65,3.2-4.59" fill="#fdc512"/><path d="M1764.58,85.1h3.85v2.61h.08c.78-1.82,2.32-2.88,4.58-2.88,3.25,0,5.09,2.05,5.09,5.48v9.45h-3.99v-8.61c0-1.91-.9-3.01-2.69-3.01s-2.93,1.31-2.93,3.21v8.41h-3.99v-14.66Z" fill="#fdc512"/><rect x="1786.59" y="80.03" width="4.13" height="19.73" fill="#fdc512"/><path d="M1803.27,90.56c-.23-1.54-1.26-2.64-2.9-2.64-1.97,0-3.2,1.67-3.2,4.5s1.23,4.53,3.21,4.53c1.6,0,2.64-.96,2.89-2.56h3.72c-.2,3.46-2.79,5.69-6.65,5.69-4.42,0-7.22-2.87-7.22-7.66s2.8-7.63,7.19-7.63c3.96,0,6.48,2.45,6.66,5.77h-3.7Z" fill="#fdc512"/><path d="M1808.39,92.42c0-4.74,2.87-7.63,7.26-7.63s7.26,2.87,7.26,7.63-2.83,7.66-7.26,7.66-7.26-2.84-7.26-7.66M1818.85,92.43c0-2.91-1.26-4.59-3.2-4.59s-3.21,1.68-3.21,4.59,1.24,4.59,3.21,4.59,3.2-1.65,3.2-4.59" fill="#fdc512"/><path d="M1824.96,85.1h3.85v2.61h.08c.78-1.82,2.32-2.88,4.58-2.88,3.25,0,5.09,2.05,5.09,5.48v9.45h-3.99v-8.61c0-1.91-.9-3.01-2.69-3.01s-2.93,1.31-2.93,3.21v8.41h-3.99v-14.66Z" fill="#fdc512"/><polygon points="163.86 78.04 154.71 78.04 154.71 104.08 149.3 104.08 149.3 78.04 140.23 78.04 140.23 74.43 163.86 74.43 163.86 78.04"/><polygon points="190.55 74.43 190.55 104.08 185.18 104.08 185.18 90.5 173.44 90.5 173.44 104.08 168.07 104.08 168.07 74.43 173.44 74.43 173.44 87.03 185.18 87.03 185.18 74.43 190.55 74.43"/><path d="M213.06,95.7h-11l-2.45,8.38h-5.5l8.89-28.23c.26-.94.9-1.42,1.93-1.42h5.24c1.03,0,1.68.47,1.93,1.42l8.89,28.23h-5.5l-2.45-8.38ZM211.77,91.28s-3.58-13.1-3.61-13.24h-1.16l-3.65,13.24h8.42Z"/><path d="M229.82,74.43v23.68c0,.92.19,1.55.56,1.91.37.36,1.03.54,1.98.54h10.31l.22,3.22c-2.81.26-6.73.39-11.77.39-4.44,0-6.66-2.05-6.66-6.14v-23.59h5.37Z"/><path d="M265.83,100.56l.26,3.26c-2.61.23-6.96.34-13.06.34-1.95,0-3.49-.5-4.62-1.5-1.13-1-1.71-2.38-1.74-4.12v-18.56c.03-1.75.61-3.12,1.74-4.13,1.13-1,2.67-1.5,4.62-1.5,6.1,0,10.46.11,13.06.34l-.26,3.35h-11.6c-.77,0-1.32.19-1.65.56-.33.37-.49,1.02-.49,1.93v6.5h12.16v3.6h-12.16v7.44c0,.92.16,1.56.49,1.93.33.37.88.56,1.65.56h11.6Z"/><path d="M282.03,92.35l-5.97-1.89c-2.15-.69-3.68-1.73-4.6-3.11-.92-1.39-1.38-3.22-1.38-5.48,0-3.24.75-4.9,2.26-5.93,1.5-1.03,4.15-1.55,7.93-1.55s6.75.33,9.32.99l-.34,2.66c-3.27-.11-6.2-.17-8.81-.17-1.98,0-3.29.19-3.95.58-.66.39-.99.85-.99,2.34,0,1.23.24,3.27.71,3.77.47.5,1.34.95,2.6,1.35l5.71,1.76c2.26.72,3.85,1.77,4.75,3.16.9,1.39,1.35,2.98,1.35,5.24,0,3.27-.77,5.23-2.32,6.36-1.55,1.13-4.28,1.7-8.21,1.7-3.27,0-6.47-.32-9.62-.95l.34-2.9c5.01.11,8.15.17,9.41.17,1.98,0,3.29-.23,3.95-.69.66-.46.99-2.25.99-3.74,0-1.26-.22-1.9-.67-2.38-.45-.49-1.27-.92-2.47-1.29"/><path d="M94.63,76.85c-1.79.36-4.09,1.39-2.04,3.83,1.48,1.76,4.1,3.59,8.32,3.15.89-.09,1.85-.37,2.81-.76,4.04-1.63,8.32-5.25,8.81-5.82.02-.03.03-.05.04-.06-2.78-.3-5.82-.67-8.85-.82-3.12-.16-6.25-.09-9.1.48" fill="#fdc512"/><path d="M127.95,65.77h-46.68v47.43h46.68v-36.91c-3.78.04-7.65.51-11.14.89h-.03c0,.07,0,.14,0,.21h0s0,.01,0,.01c-.09,7.21-.37,16.96,3.87,21.74l-4.82,6.7-4.82-6.7c4.25-4.79,3.96-14.54,3.87-21.74h0s0-.01,0-.01v-.21c-.14.16-5.22,6.14-11.17,10.09-.49.33-.98.64-1.48.93-3.84,2.28-7.42,2.61-11.03-.39-3.6-3-3.96-8.86-2.51-13.05.04-.1.07-.2.11-.3,1.15-3.02,4.1-4.98,7.34-4.98h31.8v-3.7Z" fill="#fdc512"/><path d="M585.58,473.1c0-33.96-27.53-61.49-61.49-61.49h-3.99s-.02-.06-.02-.08h-125.97s0,.05,0,.08h-3.96c-33.96,0-61.49,27.53-61.49,61.49v130.01h0v3.74c0,33.96,27.53,61.49,61.49,61.49h5.79c3.88.05,7.76.12,11.64.1,34.65-.14,69.3.18,103.95-.1h12.56c33.96,0,61.49-27.53,61.49-61.49v-133.75Z" fill="#fdc512"/><g opacity=".73"><g clip-path="url(#clippath-3)"><path d="M529.43,684.28h-144.62c-39.68,0-71.96-32.28-71.96-71.96v-144.62c0-39.68,32.28-71.96,71.96-71.96h144.62c39.68,0,71.96,32.28,71.96,71.96v144.62c0,39.68-32.28,71.96-71.96,71.96M384.8,396.72c-39.13,0-70.96,31.83-70.96,70.96v144.62c0,39.13,31.83,70.96,70.96,70.96h144.62c39.13,0,70.96-31.83,70.96-70.96v-144.62c0-39.13-31.83-70.96-70.96-70.96h-144.62Z" fill="#808081"/></g></g><path d="M502.95,494.96h.13c17.03-1.86,35.96-4.15,54.4-4.36v-33.29h-155.31c-15.79,0-30.21,9.56-35.83,24.32-.2.49-.37.99-.54,1.49-7.09,20.48-5.34,49.1,12.27,63.75,17.59,14.64,35.11,13.07,53.85,1.92,2.43-1.43,4.84-2.96,7.22-4.55,29.03-19.28,53.86-48.49,54.54-49.26v1.01h.01s-.01.06-.01.06c.45,35.19,1.83,82.83-18.91,106.2l23.54,32.75,23.54-32.75c-20.73-23.38-19.37-71.01-18.91-106.2v-.07s0,.01,0,.01c0-.34.01-.68.01-1.01M482.16,495.25c-2.4,2.78-23.27,20.47-43.02,28.44-4.73,1.91-9.41,3.26-13.74,3.71-20.61,2.15-33.43-6.79-40.64-15.36-10.03-11.95,1.21-16.94,9.95-18.72,13.9-2.82,29.16-3.13,44.42-2.36,14.81.76,29.62,2.52,43.21,4.02-.03.06-.1.15-.2.29"/><path d="M899.84,473.1c0-33.96-27.53-61.49-61.49-61.49h-3.99s-.02-.06-.02-.08h-125.97s0,.05,0,.08h-3.96c-33.96,0-61.49,27.53-61.49,61.49v130.01h0v3.74c0,33.96,27.53,61.49,61.49,61.49h5.79c3.88.05,7.76.12,11.64.1,34.65-.14,69.3.18,103.95-.1h12.57c33.96,0,61.49-27.53,61.49-61.49v-133.75Z"/><g opacity=".73"><g clip-path="url(#clippath-4)"><path d="M843.69,684.28h-144.62c-39.68,0-71.96-32.28-71.96-71.96v-144.62c0-39.68,32.28-71.96,71.96-71.96h144.62c39.68,0,71.96,32.28,71.96,71.96v144.62c0,39.68-32.28,71.96-71.96,71.96M699.07,396.72c-39.13,0-70.96,31.83-70.96,70.96v144.62c0,39.13,31.83,70.96,70.96,70.96h144.62c39.13,0,70.96-31.83,70.96-70.96v-144.62c0-39.13-31.84-70.96-70.96-70.96h-144.62Z" fill="#808081"/></g></g><path d="M817.21,494.96h.13c17.03-1.86,35.96-4.15,54.4-4.36v-33.29h-155.31c-15.79,0-30.21,9.56-35.83,24.32-.2.49-.37.99-.54,1.49-7.09,20.48-5.34,49.1,12.27,63.75,17.59,14.64,35.12,13.07,53.86,1.92,2.43-1.43,4.84-2.96,7.22-4.55,29.03-19.28,53.86-48.49,54.54-49.26v1.01h.01s-.01.06-.01.06c.45,35.19,1.83,82.83-18.91,106.2l23.53,32.75,23.54-32.75c-20.73-23.38-19.37-71.01-18.91-106.2v-.07s0,.01,0,.01c0-.34.01-.68.01-1.01M796.43,495.25c-2.4,2.78-23.27,20.47-43.02,28.44-4.73,1.91-9.41,3.26-13.74,3.71-20.61,2.15-33.43-6.79-40.64-15.36-10.03-11.95,1.21-16.94,9.95-18.72,13.9-2.82,29.16-3.13,44.42-2.36,14.81.76,29.62,2.52,43.22,4.02-.03.06-.1.15-.2.29" fill="#fdc512"/><path d="M1483.91,502.14s-.1.13-.18.26c-2.23,2.58-21.59,19-39.91,26.38-4.39,1.78-8.74,3.03-12.75,3.44-19.12,2-31.01-6.3-37.7-14.25-9.3-11.09,1.12-15.71,9.23-17.36,12.89-2.62,27.05-2.91,41.22-2.2,13.74.7,27.47,2.34,40.09,3.73"/><path d="M1591.34,540c0,70.95-57.52,128.46-128.46,128.46s-128.45-57.51-128.45-128.46,57.51-128.46,128.45-128.46c43.92,0,82.69,22.04,105.85,55.67h-159.22c-14.65,0-28.03,8.86-33.24,22.55-.18.47-.34.92-.5,1.39-6.58,19.01-4.95,45.56,11.38,59.14,16.32,13.59,32.58,12.13,49.97,1.78,2.25-1.33,4.49-2.75,6.7-4.22,26.93-17.89,49.97-45,50.6-45.71v.93h.01s-.01.06-.01.06c.42,32.65,1.69,76.85-17.55,98.54l21.84,30.38,21.84-30.38c-19.24-21.69-17.97-65.89-17.55-98.54v-.07s0,.01,0,.01c0-.32.01-.62.01-.93h.12c13.94-1.52,58.63-3.36,80.71-3.9.19-.01.37-.02.55-.02,4.5,13.1,6.95,27.15,6.95,41.78"/><g opacity=".73"><g clip-path="url(#clippath-5)"><path d="M1462.88,684.28c-79.55,0-144.28-64.72-144.28-144.28s64.72-144.28,144.28-144.28,144.28,64.72,144.28,144.28-64.72,144.28-144.28,144.28M1462.88,396.72c-79,0-143.28,64.27-143.28,143.28s64.27,143.28,143.28,143.28,143.28-64.27,143.28-143.28-64.27-143.28-143.28-143.28" fill="#808081"/></g></g><path d="M1503,503.13v-.07s0,.01,0,.01c0-.32.01-.62.01-.93h.12c13.94-1.52,59.18-3.36,81.26-3.9-3.84-11.11-9.07-21.54-15.66-31.03h-159.22c-14.65,0-28.03,8.86-33.24,22.55-.18.47-.34.92-.5,1.39-6.58,19.01-4.95,45.56,11.38,59.14,16.32,13.59,32.58,12.13,49.97,1.78,2.25-1.33,4.49-2.75,6.7-4.22,26.93-17.89,49.97-45,50.6-45.71v.93h.01s-.01.06-.01.06c.42,32.65,1.69,76.85-17.55,98.54l21.84,30.38,21.84-30.38c-19.24-21.69-17.97-65.89-17.55-98.54M1483.73,502.4c-2.23,2.58-21.59,19-39.91,26.38-4.39,1.78-8.74,3.03-12.75,3.44-19.12,2-31.01-6.3-37.7-14.25-9.3-11.09,1.12-15.71,9.23-17.36,12.89-2.62,27.05-2.91,41.22-2.2,13.74.7,27.47,2.34,40.09,3.73-.03.05-.1.13-.18.26" fill="#fdc512"/><path d="M1167.37,502.14s-.1.13-.18.26c-2.23,2.58-21.59,19-39.91,26.38-4.39,1.78-8.74,3.03-12.75,3.44-19.12,2-31.01-6.3-37.7-14.25-9.3-11.09,1.12-15.71,9.23-17.36,12.89-2.62,27.05-2.91,41.22-2.2,13.74.7,27.47,2.34,40.09,3.73" fill="#fdc512"/><path d="M1274.8,540c0,70.95-57.52,128.46-128.46,128.46s-128.45-57.51-128.45-128.46,57.51-128.46,128.45-128.46c43.92,0,82.69,22.04,105.85,55.67h-159.22c-14.65,0-28.03,8.86-33.24,22.55-.18.47-.34.92-.5,1.39-6.58,19.01-4.95,45.56,11.38,59.14,16.32,13.59,32.58,12.13,49.97,1.78,2.25-1.33,4.49-2.75,6.7-4.22,26.93-17.89,49.97-45,50.6-45.71v.93h.01s-.01.06-.01.06c.42,32.65,1.69,76.85-17.55,98.54l21.84,30.38,21.84-30.38c-19.24-21.69-17.97-65.89-17.55-98.54v-.07s0,.01,0,.01c0-.32.01-.62.01-.93h.12c13.94-1.52,58.63-3.36,80.71-3.9.19-.01.37-.02.55-.02,4.5,13.1,6.95,27.15,6.95,41.78" fill="#fdc512"/><g opacity=".73"><g clip-path="url(#clippath-6)"><path d="M1146.34,684.28c-79.55,0-144.28-64.72-144.28-144.28s64.72-144.28,144.28-144.28,144.28,64.72,144.28,144.28-64.72,144.28-144.28,144.28M1146.34,396.72c-79,0-143.28,64.27-143.28,143.28s64.27,143.28,143.28,143.28,143.28-64.27,143.28-143.28-64.27-143.28-143.28-143.28" fill="#808081"/></g></g><path d="M1186.46,503.13v-.07s0,.01,0,.01c0-.32.01-.62.01-.93h.12c13.94-1.52,59.18-3.36,81.26-3.9-3.84-11.11-9.07-21.54-15.66-31.03h-159.22c-14.65,0-28.03,8.86-33.24,22.55-.18.47-.34.92-.5,1.39-6.58,19.01-4.95,45.56,11.38,59.14,16.32,13.59,32.58,12.13,49.97,1.78,2.25-1.33,4.49-2.75,6.7-4.22,26.93-17.89,49.97-45,50.6-45.71v.93h.01s-.01.06-.01.06c.42,32.65,1.69,76.85-17.55,98.54l21.84,30.38,21.84-30.38c-19.24-21.69-17.97-65.89-17.55-98.54M1167.19,502.4c-2.23,2.58-21.59,19-39.91,26.38-4.39,1.78-8.74,3.03-12.75,3.44-19.12,2-31.01-6.3-37.7-14.25-9.3-11.09,1.12-15.71,9.23-17.36,12.89-2.62,27.05-2.91,41.22-2.2,13.74.7,27.47,2.34,40.09,3.73-.03.05-.1.13-.18.26"/></g></g></g></svg>